<svg id="Capa_1" data-name="Capa 1" xmlns="http://www.w3.org/2000/svg" xmlns:xlink="http://www.w3.org/1999/xlink" viewBox="0 0 1484.19 243.98"><defs><style>.cls-1{fill:url(#Degradado_sin_nombre_26);}.cls-2{fill:url(#Degradado_sin_nombre_26-2);}.cls-3{fill:#b3b3b3;}</style><linearGradient id="Degradado_sin_nombre_26" x1="99.09" y1="-122.13" x2="114.2" y2="342.67" gradientUnits="userSpaceOnUse"><stop offset="0.37" stop-color="#fff"/><stop offset="0.81" stop-color="#3e3e3e"/><stop offset="0.92"/><stop offset="0.93" stop-color="#262625"/></linearGradient><linearGradient id="Degradado_sin_nombre_26-2" x1="95.5" y1="-122.01" x2="110.61" y2="342.79" xlink:href="#Degradado_sin_nombre_26"/></defs><path class="cls-1" d="M200.3,244V71.18L108,209.35,14.49,70.84V244H.07V22.77l108,160,106.68-160V244Z"/><path class="cls-2" d="M27.11,223.9,18.05,244H0L110.46,0,214.79,244H197.1l-8.57-20.08H27.11m9.44-20.07H179.77l-70-162.67-56.31,125"/><path class="cls-3" d="M350,187.07v-72.8h47.15v5.15H355V148.1h32.81v5.15H355v28.56h42.11v5.26Z"/><path class="cls-3" d="M468,158.9a15.78,15.78,0,0,1,2.86,9,16.52,16.52,0,0,1-2,7.9,19.8,19.8,0,0,1-5.82,6.55,30.64,30.64,0,0,1-18.26,5.6,33.23,33.23,0,0,1-9.86-1.46,28.64,28.64,0,0,1-8.4-4.14q-6.37-4.71-7.72-11.54l4.81-2.69q.35,6.17,6.05,10.08a20.77,20.77,0,0,0,6.83,3.42,28.89,28.89,0,0,0,8.29,1.18q9,0,15.12-4.6,5.94-4.36,5.94-10.3a10.9,10.9,0,0,0-2.19-6.5,17.9,17.9,0,0,0-6.1-5.15q-3.71-1.91-13.22-3c-.52-.08-2.41-.37-5.65-.9a30.17,30.17,0,0,1-8.35-2.46,22.31,22.31,0,0,1-8.62-7.11,16.24,16.24,0,0,1-3.14-9.58,15.47,15.47,0,0,1,2.07-7.78,20.88,20.88,0,0,1,5.88-6.44,28.42,28.42,0,0,1,8.4-4.15,33.23,33.23,0,0,1,9.86-1.45A30.58,30.58,0,0,1,463,119q6.5,4.92,7.61,11.42l-4.81,2.69a11.46,11.46,0,0,0-1.63-5.38,16.46,16.46,0,0,0-4.31-4.7,22.61,22.61,0,0,0-6.94-3.42,28.48,28.48,0,0,0-8.18-1.17,29,29,0,0,0-8.23,1.17,21.08,21.08,0,0,0-6.89,3.42,16.3,16.3,0,0,0-4.48,4.76,10.44,10.44,0,0,0-1.57,5.43,11.37,11.37,0,0,0,2.58,6.89,17.93,17.93,0,0,0,6.38,5.32,20,20,0,0,0,5.21,1.62c1.9.34,4.35.69,7.34,1.07l3.92.56a51.62,51.62,0,0,1,6,1.23,21.89,21.89,0,0,1,4.93,1.9A23.23,23.23,0,0,1,468,158.9Z"/><path class="cls-3" d="M551.58,114.27v5.15H522.79v67.65h-5.15V119.42H488.75v-5.15Z"/><path class="cls-3" d="M602.09,187.86a26.57,26.57,0,0,1-10.59-2.19,27.7,27.7,0,0,1-9-6.21,25.67,25.67,0,0,1-6-9,28.72,28.72,0,0,1-2.08-10.87V114.27h5v45.36a23.41,23.41,0,0,0,1.74,9,22.18,22.18,0,0,0,4.87,7.39,22.93,22.93,0,0,0,7.39,5,22.64,22.64,0,0,0,17.36,0,22.86,22.86,0,0,0,7.4-5,22.18,22.18,0,0,0,4.87-7.39,23.59,23.59,0,0,0,1.73-9V114.27h5v45.36a28.91,28.91,0,0,1-2.07,10.87,25.81,25.81,0,0,1-6,9,27.81,27.81,0,0,1-9,6.21A26.67,26.67,0,0,1,602.09,187.86Z"/><path class="cls-3" d="M677.8,187.07H656.85v-72.8H677.8a35.61,35.61,0,0,1,14.33,2.86,33,33,0,0,1,11.43,8.12,35.88,35.88,0,0,1,7.05,11.53,39.67,39.67,0,0,1,0,27.56A37,37,0,0,1,703.56,176a32.44,32.44,0,0,1-11.43,8.24A35.77,35.77,0,0,1,677.8,187.07Zm-15.91-5H677.8q13.55,0,22.06-9.52a29.17,29.17,0,0,0,6-9.91,35.57,35.57,0,0,0,0-24,29.27,29.27,0,0,0-6-9.91q-8.62-9.3-22.06-9.3H661.89Z"/><path class="cls-3" d="M737.83,187.07v-72.8h5v72.8Z"/><path class="cls-3" d="M804.47,187.86a35.84,35.84,0,0,1-18.48-5,37.34,37.34,0,0,1,0-64.4,36.78,36.78,0,0,1,37,0,37.34,37.34,0,0,1,0,64.4A35.9,35.9,0,0,1,804.47,187.86Zm0-69.22A30.72,30.72,0,0,0,788.56,123,32.44,32.44,0,0,0,777,134.6a32.11,32.11,0,0,0,0,32.14,32.28,32.28,0,0,0,11.59,11.65,31.5,31.5,0,0,0,31.81,0,31.91,31.91,0,0,0,11.54-11.65,32.51,32.51,0,0,0,0-32.14A32.07,32.07,0,0,0,820.37,123,30.66,30.66,0,0,0,804.47,118.64Z"/><path class="cls-3" d="M977.28,187.07V129.5l-32.25,46-32.71-46.15v57.68h-5V113.38L945,166.69l37.29-53.31v73.69Z"/><path class="cls-3" d="M1018.94,168.59l-8.62,18.48h-5.6L1039,113.38l32.37,73.69h-5.49l-8.17-18.48Zm19.83-42.78-17.47,37.74h34.16Z"/><path class="cls-3" d="M1114.59,187.07h-20.94v-72.8h20.94a35.69,35.69,0,0,1,14.34,2.86,33.07,33.07,0,0,1,11.42,8.12,36.08,36.08,0,0,1,7.06,11.53,39.83,39.83,0,0,1,0,27.56,37.25,37.25,0,0,1-7.06,11.64,32.5,32.5,0,0,1-11.42,8.24A35.85,35.85,0,0,1,1114.59,187.07Zm-15.9-5h15.9q13.54,0,22.07-9.52a29.49,29.49,0,0,0,6-9.91,35.73,35.73,0,0,0,0-24,29.59,29.59,0,0,0-6-9.91q-8.64-9.3-22.07-9.3h-15.9Z"/><path class="cls-3" d="M1216.28,187.07,1186,150.34h9q8.3,0,13.45-2.13a18,18,0,0,0,6.6-5.43,12.83,12.83,0,0,0,2.8-8,13.2,13.2,0,0,0-2.35-7.45,17.49,17.49,0,0,0-6.72-5.77,21.82,21.82,0,0,0-10.08-2.24h-20.38v67.76h-5v-72.8h25.42a27.86,27.86,0,0,1,9.63,1.63,23.62,23.62,0,0,1,7.84,4.64,20.74,20.74,0,0,1,5,6.61,18.05,18.05,0,0,1-2,18.65,21.41,21.41,0,0,1-8.74,7,22.82,22.82,0,0,1-6.78,2,59.67,59.67,0,0,1-7,.39L1223,187.07Z"/><path class="cls-3" d="M1280.13,187.86a35.84,35.84,0,0,1-18.48-5,37.34,37.34,0,0,1,0-64.4,36.78,36.78,0,0,1,37,0,37.34,37.34,0,0,1,0,64.4A35.9,35.9,0,0,1,1280.13,187.86Zm0-69.22a30.67,30.67,0,0,0-15.91,4.31,32.44,32.44,0,0,0-11.59,11.65,32.11,32.11,0,0,0,0,32.14,32.28,32.28,0,0,0,11.59,11.65,31.5,31.5,0,0,0,31.81,0,31.91,31.91,0,0,0,11.54-11.65,32.51,32.51,0,0,0,0-32.14A32.07,32.07,0,0,0,1296,123,30.71,30.71,0,0,0,1280.13,118.64Z"/><path class="cls-3" d="M1344.86,127.94v59.13h-5V113.38l50.4,60.25V114.27h5v74Z"/><path class="cls-3" d="M1431.77,168.59l-8.62,18.48h-5.6l34.27-73.69,32.37,73.69h-5.49l-8.18-18.48Zm19.83-42.78-17.48,37.74h34.16Z"/></svg>