<?xml version="1.0" encoding="UTF-8" standalone="no"?>
<!-- Created with Inkscape (http://www.inkscape.org/) -->
<svg
   xmlns:dc="http://purl.org/dc/elements/1.1/"
   xmlns:cc="http://web.resource.org/cc/"
   xmlns:rdf="http://www.w3.org/1999/02/22-rdf-syntax-ns#"
   xmlns:svg="http://www.w3.org/2000/svg"
   xmlns="http://www.w3.org/2000/svg"
   xmlns:sodipodi="http://inkscape.sourceforge.net/DTD/sodipodi-0.dtd"
   xmlns:inkscape="http://www.inkscape.org/namespaces/inkscape"
   width="210mm"
   height="297mm"
   id="svg20625"
   sodipodi:version="0.32"
   inkscape:version="0.42.2"
   sodipodi:docbase="H:\Documents\Autocollants\GS"
   sodipodi:docname="r1200gs-encadre.svg">
  <defs
     id="defs20627" />
  <sodipodi:namedview
     id="base"
     pagecolor="#ffffff"
     bordercolor="#666666"
     borderopacity="1.0"
     inkscape:pageopacity="0.0"
     inkscape:pageshadow="2"
     inkscape:zoom="0.24748737"
     inkscape:cx="448.80495"
     inkscape:cy="799.74751"
     inkscape:document-units="px"
     inkscape:current-layer="layer1"
     showborder="false"
     inkscape:window-width="1440"
     inkscape:window-height="881"
     inkscape:window-x="-4"
     inkscape:window-y="-4" />
  <metadata
     id="metadata20630">
    <rdf:RDF>
      <cc:Work
         rdf:about="">
        <dc:format>image/svg+xml</dc:format>
        <dc:type
           rdf:resource="http://purl.org/dc/dcmitype/StillImage" />
      </cc:Work>
    </rdf:RDF>
  </metadata>
  <g
     inkscape:label="Calque 1"
     inkscape:groupmode="layer"
     id="layer1">
    <g
       id="g8107">
      <path
         id="path15536"
         d="M 977.81060,833.31151 C 919.43720,827.56061 878.90020,816.33331 845.63060,796.70291 C 817.81880,780.29261 798.88730,763.28131 784.31010,741.60151 C 770.36170,720.85671 762.66370,702.55291 757.67680,678.27421 C 754.77600,664.15191 754.57150,662.12751 754.14090,643.26831 C 753.47210,613.96391 755.54740,595.95831 762.99130,566.48511 C 765.71550,555.69781 775.91010,525.51641 780.99520,513.18251 C 786.95250,498.73341 800.58110,472.20761 808.62990,459.39571 C 818.77880,443.24081 832.38970,424.34711 840.16820,415.61571 C 843.43710,411.94671 848.91290,405.58471 852.33700,401.47851 C 864.76130,386.57791 889.12590,363.49181 913.54330,343.48321 C 921.46840,336.98911 944.17930,321.07051 956.96300,313.04911 C 979.52620,298.89141 1016.9363,280.15391 1039.1024,271.90841 C 1057.4612,265.07901 1093.1687,254.44221 1114.0178,249.59231 C 1149.2190,241.40361 1167.5849,238.42201 1206.3002,234.61121 C 1247.5064,230.55481 1265.3453,229.94741 1334.7584,230.23611 C 1392.2925,230.47521 1395.8006,230.57461 1398.0155,232.02601 C 1401.1893,234.10601 1400.6057,236.62311 1395.0339,244.88381 C 1383.0769,262.61101 1323.0617,349.13541 1321.6582,350.67051 C 1316.8636,355.91411 1307.0485,358.72551 1290.1073,359.70751 C 1284.8330,360.01341 1271.3237,361.18761 1260.0869,362.31731 C 1217.8862,366.55921 1179.4997,378.46431 1145.2413,397.93481 C 1130.3699,406.38691 1124.7780,410.57521 1112.2342,422.65631 C 1091.3222,442.79681 1079.3515,457.93071 1060.4169,488.16541 C 1042.0148,517.54981 1031.0360,543.66971 1023.7889,575.30831 C 1019.7785,592.81751 1018.7698,603.36631 1019.3642,621.58991 C 1019.8865,637.60011 1020.7311,642.43041 1024.8673,653.05821 C 1030.7520,668.17891 1033.0858,671.88891 1042.8419,681.63251 C 1051.0794,689.85941 1052.9751,691.29151 1061.2009,695.50061 C 1076.5194,703.33931 1091.7803,707.53221 1109.4225,708.74991 C 1115.4644,709.16671 1133.4651,709.52101 1149.4240,709.53731 L 1178.4402,709.56681 L 1180.4869,711.61351 L 1182.5339,713.66041 L 1182.5339,772.10951 L 1182.5339,830.55841 L 1180.4869,832.60531 L 1178.4402,834.65231 L 1083.9627,834.55701 C 1010.4386,834.48281 986.89600,834.20671 977.81060,833.31151 z M 1252.7824,832.98891 C 1248.4085,830.32201 1246.6017,826.68951 1246.9487,821.26011 C 1247.1990,817.33911 1248.0100,815.36561 1252.2064,808.46401 C 1254.9353,803.97591 1261.8589,794.40341 1267.5919,787.19211 C 1273.3250,779.98061 1281.5806,769.42911 1285.9378,763.74441 C 1290.2951,758.05931 1297.4248,749.02211 1301.7821,743.66171 C 1306.1391,738.30131 1312.0006,730.78211 1314.8074,726.95311 C 1322.3682,716.63791 1327.1958,711.60381 1331.1706,709.88931 C 1334.3446,708.52071 1338.3033,708.30181 1368.4943,707.82731 C 1412.6942,707.13271 1411.9021,707.35341 1418.8116,693.80281 C 1422.2778,687.00491 1424.1016,682.53401 1431.7686,662.03431 C 1433.5698,657.21851 1438.9874,643.52161 1443.8082,631.59691 C 1460.1666,591.13051 1460.4287,590.17051 1456.4174,585.40361 C 1455.2413,584.00571 1452.8960,582.43801 1451.2056,581.91971 C 1449.0848,581.26921 1423.5741,580.76071 1368.9113,580.27931 C 1325.3399,579.89561 1285.1283,579.19491 1279.5525,578.72241 C 1273.9764,578.24961 1263.5464,576.55901 1256.3742,574.96541 C 1241.3323,571.62341 1230.6727,567.20521 1213.5461,557.21421 C 1199.1065,548.79081 1188.9029,540.94401 1177.4546,529.45961 C 1164.5948,516.55911 1162.1033,511.82241 1162.1033,500.27511 C 1162.1033,493.03121 1162.3203,491.94301 1164.5783,487.86611 C 1168.7071,480.41231 1175.2624,475.68211 1185.2179,472.97371 C 1190.0918,471.64791 1207.5327,471.52891 1436.0404,471.26421 C 1608.6251,471.06441 1683.9798,471.24831 1689.5470,471.88291 C 1698.2421,472.87421 1708.2940,475.41121 1713.0032,477.80301 C 1717.0362,479.85151 1722.6312,486.26671 1725.3130,491.91811 C 1727.2725,496.04701 1727.4877,497.46091 1727.4691,506.09431 C 1727.4519,514.18421 1727.0164,517.36971 1724.6859,526.45961 C 1721.5268,538.77901 1708.1114,577.71411 1697.5107,605.32891 C 1693.5495,615.64841 1688.5756,628.96991 1686.4580,634.93251 C 1682.6939,645.53011 1670.8968,675.01631 1665.1052,688.30231 C 1663.5059,691.97131 1658.9320,702.85381 1654.9412,712.48531 C 1645.4322,735.43481 1635.1252,755.63711 1628.1372,765.02121 C 1619.9399,776.02951 1600.6962,794.81001 1591.5534,800.72411 C 1571.4308,813.74081 1561.8647,818.38951 1543.3022,824.17171 C 1512.9831,833.61631 1495.1335,834.62261 1357.6536,834.63591 C 1257.1797,834.64591 1255.4556,834.61881 1252.7824,832.98891 z M 1731.7119,833.76241 C 1723.6611,832.82941 1719.2578,830.94331 1715.8585,826.97181 C 1712.1467,822.63561 1711.3967,818.18901 1713.2827,811.70141 C 1715.8742,802.78681 1718.5489,799.76451 1732.3985,790.10211 C 1786.4597,752.38431 1849.0093,726.20611 1901.7754,719.21471 C 1943.2272,713.72231 1942.6205,713.74511 2047.5379,713.74041 L 2143.2663,713.73631 L 2145.3130,715.78301 L 2147.3599,717.82991 L 2147.3599,774.19421 L 2147.3599,830.55841 L 2145.3130,832.60531 L 2143.2663,834.65231 L 1940.3813,834.54271 C 1828.7946,834.48241 1734.8934,834.13131 1731.7119,833.76241 z M 2214.3855,833.78211 C 2210.8672,832.71401 2209.6412,831.05231 2210.2840,828.22361 C 2210.5749,826.94341 2216.7800,817.26541 2224.0732,806.71651 C 2231.3662,796.16761 2240.6195,782.65851 2244.6359,776.69591 C 2265.8085,745.26491 2281.2426,723.47851 2283.6229,721.66291 C 2285.0933,720.54131 2288.1521,718.79221 2290.4202,717.77621 C 2294.1886,716.08831 2296.4111,715.87541 2316.2253,715.30491 C 2343.4736,714.52031 2350.4693,713.97781 2358.5417,712.02361 C 2370.7733,709.06211 2387.7209,701.13631 2398.5104,693.33191 C 2407.5883,686.76541 2421.9231,668.94151 2428.3801,656.19191 C 2430.9575,651.10281 2436.1309,637.97341 2437.0734,634.12971 C 2439.8204,622.92421 2438.9769,608.85981 2435.0545,600.47381 C 2431.9024,593.73451 2430.0114,591.60291 2424.8572,588.97921 C 2415.4049,584.16761 2428.3260,584.48081 2205.7331,583.66891 C 2093.1353,583.25811 1989.3769,582.68301 1975.1588,582.39091 C 1950.8289,581.89091 1948.3019,581.68941 1932.2127,578.96571 C 1910.4980,575.28951 1906.4176,574.33201 1894.6871,570.16071 C 1882.1255,565.69391 1871.2342,560.24531 1859.2576,552.43641 C 1847.2150,544.58431 1841.7855,539.51721 1835.0060,529.80261 C 1821.0423,509.79331 1817.2379,494.43101 1818.2478,462.13331 C 1818.8674,442.32231 1821.1626,429.94831 1827.2543,413.58321 C 1838.3695,383.72191 1852.7439,361.04231 1876.1224,336.48111 C 1894.1996,317.48911 1897.3757,314.63411 1914.9936,301.53671 C 1932.0916,288.82611 1949.7475,278.44371 1973.0741,267.38271 C 2000.4934,254.38141 2039.4923,242.92971 2078.5627,236.40721 C 2111.4988,230.90881 2098.7151,231.32321 2235.3729,231.32321 C 2354.7218,231.32321 2359.7538,231.38421 2362.0064,232.85991 C 2363.9663,234.14381 2364.2711,234.80181 2363.8594,236.86041 C 2363.5885,238.21531 2362.1695,241.08871 2360.7063,243.24571 C 2333.7259,283.01591 2289.1385,346.52461 2287.1132,348.06941 C 2285.6457,349.18861 2282.5895,350.94461 2280.3215,351.97151 C 2276.3021,353.79151 2275.1754,353.85441 2235.7536,354.46111 C 2213.5093,354.80321 2189.8682,355.48541 2183.2177,355.97681 C 2166.5158,357.21091 2150.7231,360.76951 2142.6685,365.11451 C 2123.9818,375.19371 2107.7848,392.75631 2096.9544,414.68241 C 2092.2708,424.16441 2090.3341,431.33121 2090.2798,439.38221 C 2090.2293,446.86121 2091.5448,449.97541 2097.1747,455.70541 C 2104.5097,463.17081 2109.5069,465.46181 2124.4276,468.20031 C 2135.3271,470.20071 2186.4586,470.93001 2323.3136,471.03691 C 2445.4094,471.13201 2540.4282,472.16061 2555.6921,473.55211 C 2575.0155,475.31361 2607.2503,481.58821 2623.1016,486.67321 C 2653.7076,496.49211 2683.0718,518.20121 2692.7287,538.14921 C 2699.6691,552.48641 2702.7312,569.75431 2702.7367,594.58731 C 2702.7406,612.63221 2699.2840,630.87311 2692.1249,650.58841 C 2688.3812,660.89761 2675.1125,687.28201 2668.7553,697.05811 C 2655.2568,717.81581 2630.5258,743.37501 2605.9846,761.93081 C 2596.1788,769.34501 2572.0448,783.67381 2555.4664,791.92441 C 2516.4112,811.36081 2465.2933,825.09311 2405.2492,832.27841 C 2391.1984,833.95981 2386.0168,834.06361 2303.7169,834.31151 C 2250.6211,834.47161 2215.9806,834.26631 2214.3855,833.78211 z M 1458.9973,354.84101 L 1456.8881,352.73191 L 1456.8881,293.44901 L 1456.8881,234.16601 L 1458.9349,232.11921 L 1460.9817,230.07221 L 1640.1005,230.08671 C 1812.5373,230.10051 1819.4435,230.15921 1825.2404,231.66511 C 1848.0202,237.58201 1842.9753,256.67641 1812.5251,279.79221 C 1799.4354,289.72921 1785.5756,298.87491 1767.5699,309.45691 C 1734.9734,328.61421 1704.0548,341.47011 1675.3707,347.79301 C 1656.9678,351.84951 1652.3518,352.63721 1636.1772,354.47891 C 1621.8068,356.11521 1615.2825,356.25981 1540.9281,356.59261 L 1461.1062,356.95021 L 1458.9973,354.84101 z M 2427.9926,354.84101 L 2425.8835,352.73191 L 2425.8835,293.44901 L 2425.8835,234.16601 L 2427.9303,232.11921 L 2429.9773,230.07221 L 2609.0958,230.08671 C 2781.5329,230.10051 2788.4391,230.15921 2794.2359,231.66511 C 2817.0158,237.58201 2811.9709,256.67641 2781.5207,279.79221 C 2768.4310,289.72921 2754.5712,298.87491 2736.5656,309.45691 C 2703.9690,328.61421 2673.0504,341.47011 2644.3662,347.79301 C 2625.9633,351.84951 2621.3473,352.63721 2605.1728,354.47891 C 2590.8024,356.11521 2584.2778,356.25981 2509.9237,356.59261 L 2430.1018,356.95021 L 2427.9926,354.84101 z "
         style="fill:#000000;fill-opacity:1.0000000;stroke:none"
         sodipodi:nodetypes="csssssssssssssccsssssssssssssscccccccccccsssssssssscsssssssssscsssssssssssscccsscscccccccccccsssssssssssscsssssssssssssssssssssssscscssssssscccccccccsssssccccccccccsssssccc" />
      <path
         sodipodi:nodetypes="cscccsssscccscccccccccccccssscccsc"
         id="path15538"
         d="M -1962.1128,739.75311 C -1962.1128,738.24421 -1955.5660,686.62631 -1947.5644,625.04671 C -1939.5629,563.46721 -1930.9721,497.13531 -1928.4736,477.64251 L -1923.9312,442.20101 L -1734.8126,442.19791 C -1544.6172,442.19481 -1534.3123,442.38551 -1518.6600,446.19761 C -1482.9376,454.89761 -1453.7222,489.99391 -1453.7222,524.20701 C -1453.7222,550.53131 -1463.5600,573.00621 -1483.4919,592.21781 C -1494.6978,603.01881 -1506.7915,611.08941 -1521.8796,617.83551 C -1533.7956,623.16331 -1552.3648,628.19261 -1564.3582,629.34031 L -1571.9560,630.06741 L -1542.9137,661.45271 C -1507.3247,699.91301 -1471.1039,739.99081 -1470.6338,741.42961 C -1470.4150,742.09911 -1490.1178,742.49671 -1523.5078,742.49671 L -1576.7306,742.49671 L -1612.7725,702.78231 C -1632.5956,680.93931 -1653.7572,657.57201 -1659.7982,650.85491 L -1670.7820,638.64191 L -1760.7678,638.65841 L -1850.7536,638.67491 L -1857.4945,690.58581 L -1864.2352,742.49671 L -1913.1740,742.49671 L -1962.1128,742.49671 L -1962.1128,739.75311 z M -1608.5133,577.25031 C -1584.6502,574.17861 -1567.0514,563.35531 -1559.6030,547.17031 C -1557.1268,541.78951 -1556.7792,539.76011 -1556.9065,531.43071 C -1557.1297,516.82561 -1561.6700,508.56941 -1572.2163,503.59081 C -1585.0608,497.52721 -1582.6774,497.63581 -1712.2399,497.21051 L -1832.1531,496.81681 L -1832.7637,500.48491 C -1833.3631,504.08551 -1842.8607,576.88981 -1842.8607,577.88391 C -1842.8607,578.97551 -1617.1759,578.36531 -1608.5133,577.25031 z "
         style="fill:#000000;fill-opacity:1.0000000;stroke:none;stroke-opacity:1.0000000" />
      <path
         id="path15540"
         d="M -1945.1750,363.99571 L -1954.9250,364.55821 L -1962.7687,366.08941 L -1970.6125,368.58941 L -1977.8937,371.65191 L -1983.6125,374.90191 L -1989.1750,378.71441 L -1994.5187,383.12071 L -1999.1125,387.71441 L -2003.3000,392.68321 L -2006.7687,397.65191 L -2009.8000,402.99571 L -2012.4875,408.74571 L -2014.5812,414.46441 L -2016.1125,420.21441 L -2017.6437,427.46441 L -2057.8000,735.87071 L -2058.3937,743.90191 L -2057.8000,752.71441 L -2056.4562,760.93321 L -2054.3625,768.37071 L -2051.1125,776.21441 L -2047.6750,782.71441 L -2043.0812,789.21441 L -2038.4875,794.77691 L -2032.9562,799.93321 L -2026.6437,804.90191 L -2020.1437,808.90191 L -2012.8625,812.37071 L -2005.8000,814.65191 L -1999.8625,816.18321 L -1993.1750,817.12071 L -1986.1125,817.52691 L 769.07500,817.52691 L 757.98130,808.71441 L 746.88750,798.96441 L 736.57500,787.68321 L 727.57500,775.65191 L 719.54380,762.83941 L 714.01250,752.71441 L 707.70000,738.37071 L 702.54380,723.65191 L 698.13750,706.24571 L 695.66880,693.43321 L 693.95000,679.46441 L 693.54380,665.12071 L 693.35630,649.05821 L 693.76250,634.33941 L 694.70000,619.80821 L 696.60630,605.27691 L 699.29380,589.80821 L 702.35630,576.02691 L 706.54380,561.12071 L 711.91880,542.55821 L 717.26250,525.18321 L 723.20000,509.49571 L 730.07500,493.62071 L 736.38750,480.24571 L 742.10630,468.40191 L 749.76250,454.80821 L 758.38750,440.27691 L 766.79380,427.46441 L 774.41880,416.96441 L 783.79380,404.33941 L 793.16880,392.49571 L 801.01250,383.30821 L 809.79380,373.74571 L 818.98130,363.99571 L -1945.1750,363.99571 z M -1433.3625,393.80821 L -1428.1750,394.02691 L -1422.6437,394.77691 L -1416.5187,396.12071 L -1409.8312,398.40191 L -1401.9875,402.62071 L -1396.2687,407.02691 L -1391.2687,411.80821 L -1387.2687,416.55821 L -1384.2062,421.74571 L -1380.9562,428.05821 L -1378.8625,434.74571 L -1377.7062,440.65191 L -1377.3312,447.37071 L -1377.3312,454.05821 L -1414.9875,739.71441 L -1415.9562,745.05821 L -1417.3000,750.02691 L -1419.2062,754.99571 L -1422.4562,761.12071 L -1426.0812,766.65191 L -1430.3000,771.43321 L -1434.8625,775.46441 L -1439.6437,778.90191 L -1445.3937,782.33941 L -1450.7375,784.43321 L -1456.4875,786.15191 L -1462.9875,787.12071 L -1469.6750,787.30821 L -1968.1437,787.49571 L -1975.9875,786.74571 L -1983.0500,785.21441 L -1989.3625,782.71441 L -1995.4875,779.27691 L -2000.2687,776.21441 L -2004.6437,772.40191 L -2008.4875,768.18321 L -2012.1125,763.58941 L -2015.3625,758.24571 L -2017.6437,752.90191 L -2019.7687,746.40191 L -2021.0812,739.30821 L -2021.4875,731.87071 L -2020.7062,725.55821 L -1982.8625,439.12071 L -1981.5187,433.02691 L -1979.4250,427.08941 L -1976.3625,421.33941 L -1972.9250,415.62071 L -1968.8937,411.02691 L -1964.7062,407.02691 L -1959.5500,403.05821 L -1953.6125,399.74571 L -1946.3312,396.68321 L -1938.7375,394.90191 L -1930.8625,394.21441 L -1433.3625,393.80821 z M -310.05000,439.05821 C -226.75390,439.07081 -161.20460,440.64661 -145.33120,442.99571 C -102.08060,449.39601 -68.652804,469.67371 -53.237504,498.87071 C -41.631004,520.85331 -38.266704,542.90521 -41.268704,577.49571 C -43.368004,601.68341 -51.988104,636.36911 -60.237504,653.83941 C -69.960704,674.43081 -87.415504,695.58111 -106.05000,709.37071 C -137.16400,732.39511 -163.48240,739.31671 -228.45620,741.55821 C -265.74420,742.84441 -396.77810,742.78701 -448.26870,741.46441 C -484.96580,740.52191 -499.57820,738.96711 -515.92500,734.21441 C -557.79770,722.04051 -583.60030,699.33671 -594.42500,665.15191 C -603.41170,636.77151 -600.70550,591.31471 -587.55000,549.55821 C -584.93850,541.26921 -581.41530,531.55261 -579.70620,527.93321 C -566.79630,500.59291 -542.25550,474.81391 -515.36250,460.40191 C -481.26220,442.12751 -451.55300,439.03671 -310.05000,439.05821 z M 295.95000,439.05821 C 379.24610,439.07081 444.79550,440.64671 460.66880,442.99571 C 503.91940,449.39611 537.34720,469.67371 552.76250,498.87071 C 564.36890,520.85331 567.73340,542.90521 564.73130,577.49571 C 562.63180,601.68341 554.01190,636.36911 545.76250,653.83941 C 536.03940,674.43071 518.58450,695.58111 499.95000,709.37071 C 468.83590,732.39511 442.51770,739.31671 377.54380,741.55821 C 340.25570,742.84441 209.22230,742.78701 157.73130,741.46441 C 121.03430,740.52181 106.42190,738.96701 90.074996,734.21441 C 48.202396,722.04051 22.399596,699.33671 11.574996,665.15191 C 2.5883961,636.77151 5.2944961,591.31471 18.449996,549.55821 C 21.061396,541.26921 24.584696,531.55261 26.293796,527.93321 C 39.203696,500.59291 63.744496,474.81391 90.637496,460.40191 C 124.73780,442.12751 154.44690,439.03671 295.95000,439.05821 z M -1259.7375,440.62071 L -1209.5187,440.62071 L -1159.3000,440.62071 L -1159.3000,443.15191 C -1159.3023,444.53341 -1167.7899,510.92711 -1178.1437,590.71441 C -1188.4975,670.50191 -1196.9562,736.95661 -1196.9562,738.37071 L -1196.9562,740.93321 L -1247.1750,740.93321 L -1297.3937,740.93321 L -1297.3937,738.37071 C -1297.3937,736.95661 -1288.9350,670.50191 -1278.5812,590.71441 C -1268.2274,510.92701 -1259.7398,444.53341 -1259.7375,443.15191 L -1259.7375,440.62071 z M -1107.4250,440.62071 L -910.23746,440.93321 C -714.38090,441.26881 -712.98580,441.29921 -703.61250,443.62071 C -687.04870,447.72311 -669.69910,458.51541 -658.73750,471.55821 C -647.61250,484.79551 -641.71270,498.83661 -638.64370,519.30821 C -635.83850,538.01911 -638.17260,553.76321 -646.20620,570.18321 C -658.91160,596.15121 -690.88480,619.77851 -724.67499,628.15191 C -744.44809,633.05171 -742.52709,632.97331 -885.39371,633.43321 C -961.19462,633.67741 -1023.2062,633.99211 -1023.2062,634.12071 C -1023.2062,634.24921 -1024.6052,645.13931 -1026.3312,658.33941 C -1028.0572,671.53951 -1029.4875,683.23331 -1029.4875,684.30821 C -1029.4875,686.16231 -1020.3047,686.24571 -850.61249,686.24571 C -752.22939,686.24571 -671.71810,686.62901 -671.70620,687.08941 C -671.69420,687.54991 -673.19680,699.85071 -675.05000,714.43321 L -678.42500,740.96441 L -912.14371,740.96441 L -1145.8937,740.96441 L -1145.2687,735.08941 C -1144.9257,731.86601 -1140.0355,693.68621 -1134.4250,650.24571 L -1124.2375,571.27691 L -951.98746,571.27691 C -766.42189,571.27691 -770.44359,571.37401 -755.79999,565.52691 C -747.70479,562.29461 -741.38959,555.89531 -738.67499,548.15191 C -730.34729,524.39861 -740.30419,505.92311 -763.45619,502.15191 C -768.68609,501.30011 -823.30149,500.93321 -942.61246,500.93321 L -1114.2062,500.93321 L -1114.2687,498.43321 C -1114.2928,497.05171 -1112.7564,483.48651 -1110.8625,468.27691 L -1107.4250,440.62071 z M -370.17500,508.40191 C -421.67610,508.57521 -422.81730,510.16051 -436.11250,517.12071 C -447.75560,523.21591 -453.69780,528.27471 -463.39370,540.40191 C -478.86230,559.74931 -485.74590,584.95891 -485.76870,622.21441 C -485.78350,646.08161 -482.91460,655.50991 -472.61250,665.55821 C -463.31440,674.62731 -450.90280,680.34341 -437.64370,681.68321 C -435.63020,681.88661 -388.08300,682.14931 -331.98750,682.24571 C -245.20780,682.39461 -228.59160,682.15261 -220.58120,680.71441 C -209.25050,678.68021 -192.98680,670.67201 -185.08120,663.24571 C -176.77340,655.44141 -167.19230,642.73051 -162.70620,633.52691 C -157.96990,623.80951 -153.69910,607.27621 -152.11250,592.49571 C -150.51030,577.57061 -150.79940,554.73851 -152.67500,546.24571 C -156.64130,528.28631 -168.35480,516.15671 -186.86250,510.83941 C -192.75480,509.14661 -204.04720,508.91521 -299.58120,508.55821 C -330.25350,508.44361 -353.00800,508.34421 -370.17500,508.40191 z M 235.82500,508.40191 C 184.32380,508.57521 183.18290,510.16051 169.88750,517.12071 C 158.24440,523.21591 152.30220,528.27471 142.60630,540.40191 C 127.13770,559.74931 120.25390,584.95891 120.23130,622.21441 C 120.21670,646.08161 123.08540,655.50991 133.38750,665.55821 C 142.68560,674.62731 155.09730,680.34341 168.35630,681.68321 C 170.37000,681.88661 217.88560,682.14931 273.98130,682.24571 C 360.76090,682.39461 377.37710,682.15261 385.38750,680.71441 C 396.71830,678.68021 413.01320,670.67201 420.91880,663.24571 C 429.22650,655.44141 438.80760,642.73051 443.29380,633.52691 C 448.03010,623.80951 452.30090,607.27621 453.88750,592.49571 C 455.48950,577.57061 455.20060,554.73851 453.32500,546.24571 C 449.35870,528.28631 437.64510,516.15671 419.13750,510.83941 C 413.24510,509.14661 401.95290,508.91521 306.41880,508.55821 C 275.74650,508.44361 252.99210,508.34421 235.82500,508.40191 z "
         style="fill:#000000;fill-opacity:1.0000000;fill-rule:evenodd;stroke:none;stroke-width:1.0000000;stroke-linecap:butt;stroke-linejoin:miter;stroke-miterlimit:4.0000000;stroke-opacity:1.0000000" />
    </g>
  </g>
</svg>
